<svg xmlns="http://www.w3.org/2000/svg" width="137.852" height="118.646"><defs><linearGradient id="a" x1=".5" x2="1.91" y2=".942" gradientUnits="objectBoundingBox"><stop offset="0" stop-color="#3b50f2"/><stop offset="1" stop-color="#521e79"/></linearGradient></defs><g fill="url(#a)" transform="translate(-107.86 -241.56)"><path d="M107.86 267.165c.2-.1.407-.181.593-.3q19.822-12.429 39.641-24.865c.223-.14.448-.277.712-.44l34.967 23.466-.622 31.911c-.265.083-.424-.115-.6-.219q-6.024-3.613-12.04-7.239L147.9 275.872c-.169-.1-.347-.192-.6-.331-.016.265-.04.457-.038.65q.058 6.2.12 12.4l.122 12.588.122 12.466c.031 2.994.077 5.988.084 8.983a.87.87 0 0 0 .51.8l18.663 12.2 9 5.884c.182.119.357.248.593.412L148.2 359.8c-.183-.107-.358-.2-.525-.309q-19.549-12.577-39.1-25.147a.91.91 0 0 1-.491-.875c.012-2.873-.005-5.746-.014-8.618q-.017-5.684-.036-11.367-.029-6.6-.072-13.2c-.012-2.119-.019-4.237-.035-6.356 0-.241-.044-.481-.068-.721Z" data-name="路径 53"/><path d="m204.811 360.209-6.025-4.066q-14.152-9.5-28.313-18.992a1.06 1.06 0 0 1-.544-1.032c.088-3.788.146-7.577.217-11.364q.119-6.294.244-12.586.07-3.482.155-6.964c0-.119.025-.238.05-.459l35.813 21.547v-.695l-.164-18.335q-.058-6.324-.123-12.65-.06-6.2-.123-12.406c-.011-1.039-.058-2.077-.043-3.116a.76.76 0 0 0-.455-.711q-2.843-1.848-5.677-3.711l-21.936-14.345c-.2-.132-.4-.271-.683-.465l28.292-17.88c.238.148.447.273.651.4q19.448 12.511 38.9 25.016a1.11 1.11 0 0 1 .58 1.075q-.008 20.416.019 40.833.01 9.933.036 19.865c0 1.61 0 3.219.03 4.828a.99.99 0 0 1-.548.973q-19.518 12.228-39.024 24.479c-.373.234-.723.5-1.083.758Z" data-name="路径 54"/></g></svg>